<svg width="106" height="78" viewBox="0 0 106 78" fill="none" xmlns="http://www.w3.org/2000/svg">
<path d="M9.23162 48.2886H4.04639V37.2245L20.8677 29.1877V21.546H26.0529V32.457L9.23162 40.4938V48.2886Z" fill="#0A2F87"/>
<path d="M20.781 36.9385V48.3962H26.0181V34.4363L20.781 36.9385Z" fill="black"/>
<path d="M9.38357 32.7571V21.5459H4.14648V35.2593L9.38357 32.7571Z" fill="black"/>
<mask id="mask0_31703_122001" style="mask-type:luminance" maskUnits="userSpaceOnUse" x="0" y="0" width="106" height="78">
<path d="M0.161621 0.600958H105.838V77.3992H0.161621V0.600958Z" fill="white"/>
</mask>
<g mask="url(#mask0_31703_122001)">
<path d="M40.7008 37.3338C40.7243 36.4299 40.4272 35.6565 39.8088 35.0141C39.1898 34.3718 38.3931 34.0506 37.4177 34.0506C36.8227 34.0506 36.2991 34.1459 35.8475 34.3362C35.3953 34.5267 35.0088 34.7705 34.6876 35.0676C34.3664 35.3655 34.1167 35.7099 33.9382 36.1026C33.7598 36.4952 33.6583 36.9056 33.6349 37.3338H40.7008ZM45.2331 44.9709C44.3765 46.0653 43.2939 46.9102 41.9857 47.5046C40.6768 48.0989 39.3209 48.3967 37.9173 48.3967C36.5846 48.3967 35.3302 48.1825 34.1524 47.7544C32.9747 47.3261 31.9515 46.7138 31.0833 45.9165C30.2146 45.1197 29.531 44.1623 29.0314 43.0436C28.5316 41.9257 28.282 40.6765 28.282 39.2966C28.282 37.917 28.5316 36.668 29.0314 35.5494C29.531 34.4314 30.2146 33.4739 31.0833 32.6767C31.9515 31.8797 32.9747 31.2671 34.1524 30.8388C35.3302 30.4106 36.5846 30.1964 37.9173 30.1964C39.1541 30.1964 40.2783 30.4106 41.2897 30.8388C42.3007 31.2671 43.1573 31.8797 43.8593 32.6767C44.5607 33.4739 45.1021 34.4314 45.4829 35.5494C45.8631 36.668 46.0539 37.917 46.0539 39.2966V40.974H33.6349C33.849 41.997 34.313 42.8117 35.0268 43.4183C35.7404 44.025 36.6203 44.3283 37.6675 44.3283C38.5474 44.3283 39.2913 44.1321 39.8979 43.7397C40.5046 43.347 41.0338 42.8417 41.4859 42.223L45.2331 44.9709Z" fill="black"/>
<path d="M47.5879 22.7923H52.9409V47.9683H47.5879V22.7923Z" fill="black"/>
<path d="M55.082 30.6245H60.435V47.9683H55.082V30.6245Z" fill="black"/>
<path d="M54.6538 25.9548C54.6538 25.0985 54.9572 24.3667 55.5638 23.7601C56.1705 23.1534 56.9021 22.85 57.7586 22.85C58.6151 22.85 59.3465 23.1534 59.9533 23.7601C60.5599 24.3667 60.8632 25.0985 60.8632 25.9548C60.8632 26.8114 60.5599 27.5429 59.9533 28.1495C59.3465 28.7562 58.6151 29.0596 57.7586 29.0596C56.9021 29.0596 56.1705 28.7562 55.5638 28.1495C54.9572 27.5429 54.6538 26.8114 54.6538 25.9548Z" fill="#F5303E"/>
<path d="M80.6938 30.6245H74.7341L71.772 35.7402L68.7031 30.6245H62.3865L68.1104 39.2963L62.3865 47.9683H68.7031L71.772 42.8526L74.7341 47.9683H80.6938L75.1112 39.2963L80.6938 30.6245Z" fill="black"/>
<path d="M97.9843 37.6902C97.2748 21.5768 83.9728 8.73927 67.6826 8.73927C55.4248 8.73927 44.8643 16.0229 40.0862 26.4982H34.9941C40.0448 13.3689 52.7745 4.04656 67.6816 4.04656C86.5662 4.04656 101.959 18.9937 102.666 37.6975L97.9843 37.6902Z" fill="#0A2F87"/>
<path d="M97.9842 40.2196C97.2747 56.3329 83.9727 69.1705 67.6825 69.1705C55.6379 69.1705 45.2364 62.1357 40.3448 51.953H35.2083C40.3975 64.7963 52.9803 73.863 67.6815 73.863C86.5662 73.863 101.959 58.916 102.665 40.2122L97.9842 40.2196Z" fill="#F5303E"/>
</g>
</svg>
