<svg width="56" height="40" viewBox="0 0 56 40" fill="none" xmlns="http://www.w3.org/2000/svg">
<path d="M4.72415 24.8373H2.02344V19.0746L10.7847 14.8887V10.9085H13.4855V16.5915L4.72415 20.7774V24.8373Z" fill="white"/>
<path d="M10.7396 18.9257V24.8934H13.4673V17.6225L10.7396 18.9257Z" fill="white"/>
<path d="M4.80328 16.7477V10.9084H2.07556V18.051L4.80328 16.7477Z" fill="white"/>
<mask id="mask0_12635_34992" style="mask-type:luminance" maskUnits="userSpaceOnUse" x="0" y="-1" width="56" height="41">
<path d="M0 -0.000732422H55.0413V39.9993H0V-0.000732422Z" fill="white"/>
</mask>
<g mask="url(#mask0_12635_34992)">
<path d="M21.1145 19.1313C21.1268 18.6606 20.972 18.2578 20.65 17.9232C20.3275 17.5886 19.9125 17.4213 19.4045 17.4213C19.0946 17.4213 18.8219 17.471 18.5867 17.57C18.3512 17.6693 18.1499 17.7963 17.9826 17.951C17.8153 18.1062 17.6852 18.2856 17.5922 18.4901C17.4993 18.6946 17.4465 18.9083 17.4343 19.1313H21.1145ZM23.4752 23.1091C23.029 23.6791 22.4651 24.1192 21.7837 24.4288C21.102 24.7383 20.3958 24.8934 19.6647 24.8934C18.9706 24.8934 18.3173 24.7819 17.7038 24.5589C17.0904 24.3358 16.5575 24.0169 16.1053 23.6016C15.6528 23.1866 15.2968 22.6879 15.0366 22.1053C14.7762 21.523 14.6462 20.8724 14.6462 20.1537C14.6462 19.4351 14.7762 18.7846 15.0366 18.2019C15.2968 17.6197 15.6528 17.1209 16.1053 16.7058C16.5575 16.2906 17.0904 15.9715 17.7038 15.7485C18.3173 15.5254 18.9706 15.4139 19.6647 15.4139C20.3089 15.4139 20.8945 15.5254 21.4213 15.7485C21.9478 15.9715 22.394 16.2906 22.7596 16.7058C23.125 17.1209 23.4069 17.6197 23.6052 18.2019C23.8033 18.7846 23.9027 19.4351 23.9027 20.1537V21.0273H17.4343C17.5458 21.5602 17.7875 21.9845 18.1592 22.3005C18.5309 22.6164 18.9892 22.7744 19.5347 22.7744C19.9929 22.7744 20.3804 22.6722 20.6963 22.4678C21.0123 22.2633 21.288 22.0001 21.5235 21.6779L23.4752 23.1091Z" fill="white"/>
<path d="M24.7018 11.5576H27.4898V24.6703H24.7018V11.5576Z" fill="white"/>
<path d="M28.6052 15.6369H31.3933V24.6703H28.6052V15.6369Z" fill="white"/>
<path d="M28.382 13.2047C28.382 12.7587 28.54 12.3776 28.8559 12.0616C29.1719 11.7456 29.553 11.5876 29.9991 11.5876C30.4452 11.5876 30.8261 11.7456 31.1422 12.0616C31.4581 12.3776 31.6161 12.7587 31.6161 13.2047C31.6161 13.6509 31.4581 14.0319 31.1422 14.3478C30.8261 14.6638 30.4452 14.8218 29.9991 14.8218C29.553 14.8218 29.1719 14.6638 28.8559 14.3478C28.54 14.0319 28.382 13.6509 28.382 13.2047Z" fill="white"/>
<path d="M41.9448 15.637H38.8408L37.298 18.3014L35.6995 15.637H32.4095L35.3908 20.1536L32.4095 24.6703H35.6995L37.298 22.0059L38.8408 24.6703H41.9448L39.0372 20.1536L41.9448 15.637Z" fill="white"/>
<path d="M50.9503 19.3169C50.5808 10.9243 43.6525 4.23797 35.1678 4.23797C28.7834 4.23797 23.2831 8.03164 20.7944 13.4876H18.1422C20.7728 6.64931 27.403 1.7938 35.1673 1.7938C45.0033 1.7938 53.0206 9.57896 53.3885 19.3207L50.9503 19.3169Z" fill="white"/>
<path d="M50.9505 20.6344C50.5809 29.027 43.6527 35.7134 35.168 35.7134C28.8946 35.7134 23.477 32.0493 20.9293 26.7457H18.2539C20.9567 33.4351 27.5104 38.1575 35.1675 38.1575C45.0034 38.1575 53.0207 30.3724 53.3887 20.6306L50.9505 20.6344Z" fill="white"/>
</g>
</svg>
